<mxfile host="drawio-plugin" modified="2021-10-25T07:19:55.931Z" agent="5.0 (Windows NT 6.2; Win64; x64) AppleWebKit/537.36 (KHTML, like Gecko) Chrome/89.0.4389.114 Safari/537.36" etag="aXD2uRFOS2xYBbAuE6ls" version="14.7.4" type="embed"><diagram id="sggfQdqfqEOkFLX4i7qf" name="Page-1"><mxGraphModel dx="920" dy="452" grid="1" gridSize="10" guides="1" tooltips="1" connect="1" arrows="1" fold="1" page="1" pageScale="1" pageWidth="827" pageHeight="1169" math="0" shadow="0"><root><mxCell id="0"/><mxCell id="1" parent="0"/><mxCell id="iWXXAU2h8dqT23z81PYf-1" value="User" style="swimlane;fontStyle=0;childLayout=stackLayout;horizontal=1;startSize=26;horizontalStack=0;resizeParent=1;resizeParentMax=0;resizeLast=0;collapsible=1;marginBottom=0;align=center;fontSize=14;" parent="1" vertex="1"><mxGeometry x="80" y="120" width="240" height="206" as="geometry"/></mxCell><mxCell id="iWXXAU2h8dqT23z81PYf-2" value="id: ObjectId" style="text;strokeColor=none;fillColor=none;spacingLeft=4;spacingRight=4;overflow=hidden;rotatable=0;points=[[0,0.5],[1,0.5]];portConstraint=eastwest;fontSize=12;" parent="iWXXAU2h8dqT23z81PYf-1" vertex="1"><mxGeometry y="26" width="240" height="30" as="geometry"/></mxCell><mxCell id="iWXXAU2h8dqT23z81PYf-3" value="email: String" style="text;strokeColor=none;fillColor=none;spacingLeft=4;spacingRight=4;overflow=hidden;rotatable=0;points=[[0,0.5],[1,0.5]];portConstraint=eastwest;fontSize=12;" parent="iWXXAU2h8dqT23z81PYf-1" vertex="1"><mxGeometry y="56" width="240" height="30" as="geometry"/></mxCell><mxCell id="iWXXAU2h8dqT23z81PYf-4" value="password: String" style="text;strokeColor=none;fillColor=none;spacingLeft=4;spacingRight=4;overflow=hidden;rotatable=0;points=[[0,0.5],[1,0.5]];portConstraint=eastwest;fontSize=12;" parent="iWXXAU2h8dqT23z81PYf-1" vertex="1"><mxGeometry y="86" width="240" height="30" as="geometry"/></mxCell><mxCell id="iWXXAU2h8dqT23z81PYf-5" value="diskSpace: number default 1024**3*10" style="text;strokeColor=none;fillColor=none;spacingLeft=4;spacingRight=4;overflow=hidden;rotatable=0;points=[[0,0.5],[1,0.5]];portConstraint=eastwest;fontSize=12;" parent="iWXXAU2h8dqT23z81PYf-1" vertex="1"><mxGeometry y="116" width="240" height="30" as="geometry"/></mxCell><mxCell id="iWXXAU2h8dqT23z81PYf-6" value="usedSpace: number default 0" style="text;strokeColor=none;fillColor=none;spacingLeft=4;spacingRight=4;overflow=hidden;rotatable=0;points=[[0,0.5],[1,0.5]];portConstraint=eastwest;fontSize=12;" parent="iWXXAU2h8dqT23z81PYf-1" vertex="1"><mxGeometry y="146" width="240" height="30" as="geometry"/></mxCell><mxCell id="iWXXAU2h8dqT23z81PYf-7" value="avatar: String" style="text;strokeColor=none;fillColor=none;spacingLeft=4;spacingRight=4;overflow=hidden;rotatable=0;points=[[0,0.5],[1,0.5]];portConstraint=eastwest;fontSize=12;" parent="iWXXAU2h8dqT23z81PYf-1" vertex="1"><mxGeometry y="176" width="240" height="30" as="geometry"/></mxCell><mxCell id="iWXXAU2h8dqT23z81PYf-9" value="Files" style="swimlane;fontStyle=0;childLayout=stackLayout;horizontal=1;startSize=26;horizontalStack=0;resizeParent=1;resizeParentMax=0;resizeLast=0;collapsible=1;marginBottom=0;align=center;fontSize=14;" parent="1" vertex="1"><mxGeometry x="400" y="120" width="160" height="266" as="geometry"/></mxCell><mxCell id="iWXXAU2h8dqT23z81PYf-10" value="id: ObjectId" style="text;strokeColor=none;fillColor=none;spacingLeft=4;spacingRight=4;overflow=hidden;rotatable=0;points=[[0,0.5],[1,0.5]];portConstraint=eastwest;fontSize=12;" parent="iWXXAU2h8dqT23z81PYf-9" vertex="1"><mxGeometry y="26" width="160" height="30" as="geometry"/></mxCell><mxCell id="iWXXAU2h8dqT23z81PYf-11" value="name: String" style="text;strokeColor=none;fillColor=none;spacingLeft=4;spacingRight=4;overflow=hidden;rotatable=0;points=[[0,0.5],[1,0.5]];portConstraint=eastwest;fontSize=12;" parent="iWXXAU2h8dqT23z81PYf-9" vertex="1"><mxGeometry y="56" width="160" height="30" as="geometry"/></mxCell><mxCell id="iWXXAU2h8dqT23z81PYf-12" value="type: String" style="text;strokeColor=none;fillColor=none;spacingLeft=4;spacingRight=4;overflow=hidden;rotatable=0;points=[[0,0.5],[1,0.5]];portConstraint=eastwest;fontSize=12;" parent="iWXXAU2h8dqT23z81PYf-9" vertex="1"><mxGeometry y="86" width="160" height="30" as="geometry"/></mxCell><mxCell id="iWXXAU2h8dqT23z81PYf-16" value="access_link: String" style="text;strokeColor=none;fillColor=none;spacingLeft=4;spacingRight=4;overflow=hidden;rotatable=0;points=[[0,0.5],[1,0.5]];portConstraint=eastwest;fontSize=12;" parent="iWXXAU2h8dqT23z81PYf-9" vertex="1"><mxGeometry y="116" width="160" height="30" as="geometry"/></mxCell><mxCell id="iWXXAU2h8dqT23z81PYf-13" value="size: Number" style="text;strokeColor=none;fillColor=none;spacingLeft=4;spacingRight=4;overflow=hidden;rotatable=0;points=[[0,0.5],[1,0.5]];portConstraint=eastwest;fontSize=12;" parent="iWXXAU2h8dqT23z81PYf-9" vertex="1"><mxGeometry y="146" width="160" height="30" as="geometry"/></mxCell><mxCell id="2" value="path: String" style="text;strokeColor=none;fillColor=none;spacingLeft=4;spacingRight=4;overflow=hidden;rotatable=0;points=[[0,0.5],[1,0.5]];portConstraint=eastwest;fontSize=12;" vertex="1" parent="iWXXAU2h8dqT23z81PYf-9"><mxGeometry y="176" width="160" height="30" as="geometry"/></mxCell><mxCell id="iWXXAU2h8dqT23z81PYf-14" value="user_id: ObjectId FK" style="text;strokeColor=none;fillColor=none;spacingLeft=4;spacingRight=4;overflow=hidden;rotatable=0;points=[[0,0.5],[1,0.5]];portConstraint=eastwest;fontSize=12;" parent="iWXXAU2h8dqT23z81PYf-9" vertex="1"><mxGeometry y="206" width="160" height="30" as="geometry"/></mxCell><mxCell id="iWXXAU2h8dqT23z81PYf-15" value="parent_id: ObjectId FK" style="text;strokeColor=none;fillColor=none;spacingLeft=4;spacingRight=4;overflow=hidden;rotatable=0;points=[[0,0.5],[1,0.5]];portConstraint=eastwest;fontSize=12;" parent="iWXXAU2h8dqT23z81PYf-9" vertex="1"><mxGeometry y="236" width="160" height="30" as="geometry"/></mxCell><mxCell id="iWXXAU2h8dqT23z81PYf-17" value="" style="edgeStyle=entityRelationEdgeStyle;fontSize=12;html=1;endArrow=ERoneToMany;rounded=0;entryX=0;entryY=0.5;entryDx=0;entryDy=0;exitX=1;exitY=0.5;exitDx=0;exitDy=0;" parent="1" source="iWXXAU2h8dqT23z81PYf-2" target="iWXXAU2h8dqT23z81PYf-10" edge="1"><mxGeometry width="100" height="100" relative="1" as="geometry"><mxPoint x="350" y="161" as="sourcePoint"/><mxPoint x="420" y="60" as="targetPoint"/></mxGeometry></mxCell></root></mxGraphModel></diagram></mxfile>